<?xml version="1.0" encoding="UTF-8" standalone="no"?>
<svg
   xmlns:dc="http://purl.org/dc/elements/1.1/"
   xmlns:cc="http://creativecommons.org/ns#"
   xmlns:rdf="http://www.w3.org/1999/02/22-rdf-syntax-ns#"
   xmlns:svg="http://www.w3.org/2000/svg"
   xmlns="http://www.w3.org/2000/svg"
   xmlns:sodipodi="http://sodipodi.sourceforge.net/DTD/sodipodi-0.dtd"
   xmlns:inkscape="http://www.inkscape.org/namespaces/inkscape"
   width="600mm"
   height="600mm"
   viewBox="0 0 600 600"
   version="1.1"
   id="svg8"
   inkscape:version="1.0.1 (3bc2e813f5, 2020-09-07)"
   sodipodi:docname="symbols.template.svg">
  <defs
     id="defs2" />
  <sodipodi:namedview
     id="base"
     pagecolor="#404040"
     bordercolor="#666666"
     borderopacity="1.0"
     inkscape:pageopacity="0"
     inkscape:pageshadow="2"
     inkscape:zoom="0.25"
     inkscape:cx="1183.7128"
     inkscape:cy="542.79151"
     inkscape:document-units="mm"
     inkscape:current-layer="layer1"
     inkscape:document-rotation="0"
     showgrid="true"
     inkscape:pagecheckerboard="true"
     inkscape:snap-global="false"
     inkscape:window-width="1920"
     inkscape:window-height="975"
     inkscape:window-x="1920"
     inkscape:window-y="0"
     inkscape:window-maximized="1">
    <inkscape:grid
       type="xygrid"
       id="grid1667"
       color="#ffffff"
       opacity="0.1254902"
       empcolor="#ffffff"
       empopacity="0.25098039"
       spacingx="100"
       spacingy="100"
       empspacing="1"
       units="mm"
       dotted="false"
       snapvisiblegridlinesonly="true" />
  </sodipodi:namedview>
  <metadata
     id="metadata5">
    <rdf:RDF>
      <cc:Work
         rdf:about="">
        <dc:format>image/svg+xml</dc:format>
        <dc:type
           rdf:resource="http://purl.org/dc/dcmitype/StillImage" />
        <dc:title />
      </cc:Work>
    </rdf:RDF>
  </metadata>
  <g
     inkscape:label="Layer 1"
     inkscape:groupmode="layer"
     id="layer1">
    <g
       aria-label="0"
       id="text1070"
       style="font-size:75px;line-height:1.25;font-family:'URW Bookman';-inkscape-font-specification:'URW Bookman';letter-spacing:0px;word-spacing:0px;fill:none;stroke:#000000;stroke-width:1.5664;stroke-linecap:round;stroke-linejoin:round;stroke-miterlimit:4;stroke-dasharray:none;stroke-opacity:1"
       transform="matrix(0.9576131,0,0,0.95760451,22.918027,3.8556807)">
      <path
         d="m 23.668204,65.699741 q 2.4,0 4.425,-1.425 2.025,-1.425 3.525,-3.75 1.575,-2.325 2.7,-5.25 1.2,-3 1.95,-6.075 0.75,-3.075 1.125,-6 0.375,-2.925 0.375,-5.175 0,-3.825 -1.2,-5.625 -1.125,-1.8 -3.525,-1.8 -2.475,0 -4.5,1.425 -2.025,1.425 -3.6,3.75 -1.575,2.325 -2.775,5.325 -1.125,3 -1.875,6.075 -0.75,3.075 -1.125,6 -0.375,2.925 -0.375,5.175 0,3.9 1.2,5.625 1.2,1.725 3.675,1.725 z m -1.725,9.6 q -3.675,0 -6.225,-1.275 -2.55,-1.35 -4.2,-3.525 -1.5749996,-2.175 -2.3249996,-4.875 -0.675,-2.775 -0.675,-5.7 0,-8.55 1.8749996,-15.675 1.95,-7.125 5.325,-12.3 3.45,-5.175 8.25,-8.025 4.8,-2.85 10.65,-2.85 3.675,0 6.225,1.35 2.55,1.275 4.125,3.45 1.65,2.175 2.325,4.95 0.75,2.7 0.75,5.625 0,8.55 -1.95,15.675 -1.875,7.125 -5.325,12.3 -3.375,5.175 -8.175,8.025 -4.8,2.85 -10.65,2.85 z"
         style="font-style:italic;font-variant:normal;font-weight:bold;font-stretch:normal;font-size:75px;font-family:Ubuntu;-inkscape-font-specification:'Ubuntu Bold Italic';fill:none;stroke:#000000;stroke-width:1.5664;stroke-linecap:round;stroke-linejoin:round;stroke-miterlimit:4;stroke-dasharray:none;stroke-opacity:1"
         id="path1196" />
    </g>
    <g
       aria-label="1"
       id="text1078"
       style="font-size:75px;line-height:1.25;font-family:'URW Bookman';-inkscape-font-specification:'URW Bookman';letter-spacing:0px;word-spacing:0px;fill:none;stroke:#000000;stroke-width:1.5664;stroke-linecap:round;stroke-linejoin:round;stroke-miterlimit:4;stroke-dasharray:none;stroke-opacity:1"
       transform="matrix(0.9576131,0,0,0.95760451,8.628915,3.7838604)">
      <path
         d="m 133.82861,33.074741 q 2.4,-0.9 5.025,-2.025 2.625,-1.2 5.175,-2.55 2.625,-1.425 5.1,-2.925 2.475,-1.575 4.5,-3.3 h 7.8 l -12.525,51.975 h -11.175 l 9,-37.425 q -2.625,1.5 -5.7,2.775 -3.075,1.2 -5.85,2.1 z"
         style="font-style:italic;font-variant:normal;font-weight:bold;font-stretch:normal;font-size:75px;font-family:Ubuntu;-inkscape-font-specification:'Ubuntu Bold Italic';fill:none;stroke:#000000;stroke-width:1.5664;stroke-linecap:round;stroke-linejoin:round;stroke-miterlimit:4;stroke-dasharray:none;stroke-opacity:1"
         id="path1199" />
    </g>
    <g
       aria-label="2"
       id="text1082"
       style="font-size:75px;line-height:1.25;font-family:'URW Bookman';-inkscape-font-specification:'URW Bookman';letter-spacing:0px;word-spacing:0px;fill:none;stroke:#000000;stroke-width:1.5664;stroke-linecap:round;stroke-linejoin:round;stroke-miterlimit:4;stroke-dasharray:none;stroke-opacity:1"
       transform="matrix(0.9576131,0,0,0.95760451,18.4511,4.3584231)">
      <path
         d="m 248.81046,21.074741 q 3,0 5.55,0.975 2.625,0.975 4.5,2.7 1.95,1.65 3,3.9 1.05,2.25 1.05,4.8 0,2.85 -0.6,5.1 -0.6,2.25 -2.025,4.35 -1.425,2.1 -3.825,4.275 -2.325,2.175 -5.775,4.875 -2.025,1.575 -4.125,3 -2.025,1.425 -4.05,2.925 -1.95,1.5 -3.825,3.225 -1.875,1.65 -3.525,3.75 h 22.35 l -2.25,9.3 h -34.575 q 0.675,-4.725 2.325,-8.175 1.65,-3.45 4.05,-6.225 2.475,-2.85 5.55,-5.25 3.075,-2.475 6.675,-5.25 3.375,-2.625 5.7,-4.5 2.4,-1.95 3.825,-3.525 1.5,-1.65 2.175,-3.075 0.675,-1.425 0.675,-3 0,-1.95 -1.425,-3.225 -1.35,-1.35 -3.525,-1.35 -3.075,0 -6,1.35 -2.925,1.275 -6.375,3.9 l -3.825,-8.175 q 4.5,-3.675 9,-5.175 4.5,-1.5 9.3,-1.5 z"
         style="font-style:italic;font-variant:normal;font-weight:bold;font-stretch:normal;font-size:75px;font-family:Ubuntu;-inkscape-font-specification:'Ubuntu Bold Italic';fill:none;stroke:#000000;stroke-width:1.5664;stroke-linecap:round;stroke-linejoin:round;stroke-miterlimit:4;stroke-dasharray:none;stroke-opacity:1"
         id="path1202" />
    </g>
    <g
       aria-label="3"
       id="text1086"
       style="font-size:75px;line-height:1.25;font-family:'URW Bookman';-inkscape-font-specification:'URW Bookman';letter-spacing:0px;word-spacing:0px;fill:none;stroke:#000000;stroke-width:1.5664;stroke-linecap:round;stroke-linejoin:round;stroke-miterlimit:4;stroke-dasharray:none;stroke-opacity:1"
       transform="matrix(0.9576131,0,0,0.95760451,23.860447,3.8556807)">
      <path
         d="m 351.26298,46.649741 q 3.15,1.5 4.875,4.65 1.725,3.075 1.725,6.75 0,3.075 -1.275,6.15 -1.275,3.075 -4.05,5.55 -2.775,2.475 -7.05,4.05 -4.275,1.5 -10.275,1.5 -8.55,0 -15.375,-3.525 l 4.05,-8.85 q 2.175,1.5 5.4,2.475 3.225,0.9 6.6,0.9 2.1,0 4.05,-0.45 2.025,-0.45 3.525,-1.5 1.5,-1.05 2.4,-2.7 0.9,-1.65 0.9,-4.05 0,-3.075 -2.55,-4.65 -2.475,-1.575 -6.675,-1.575 h -4.8 l 2.175,-8.85 h 5.4 q 1.575,0 3.3,-0.3 1.725,-0.3 3.15,-1.05 1.425,-0.825 2.325,-2.1 0.975,-1.35 0.975,-3.45 0,-2.625 -1.8,-3.825 -1.8,-1.275 -4.725,-1.275 -2.325,0 -5.175,0.825 -2.775,0.825 -5.775,2.4 l -2.85,-8.4 q 3.675,-2.1 7.575,-3.15 3.9,-1.125 8.1,-1.125 3.975,0 6.975,1.125 3,1.05 4.95,2.85 2.025,1.8 3,4.125 0.975,2.25 0.975,4.65 0,1.95 -0.675,3.9 -0.6,1.875 -1.875,3.6 -1.2,1.65 -3.15,3.075 -1.875,1.35 -4.35,2.25 z"
         style="font-style:italic;font-variant:normal;font-weight:bold;font-stretch:normal;font-size:75px;font-family:Ubuntu;-inkscape-font-specification:'Ubuntu Bold Italic';fill:none;stroke:#000000;stroke-width:1.5664;stroke-linecap:round;stroke-linejoin:round;stroke-miterlimit:4;stroke-dasharray:none;stroke-opacity:1"
         id="path1205" />
    </g>
    <g
       aria-label="4"
       id="text1090"
       style="font-size:75px;line-height:1.25;font-family:'URW Bookman';-inkscape-font-specification:'URW Bookman';letter-spacing:0px;word-spacing:0px;fill:none;stroke:#000000;stroke-width:1.5664;stroke-linecap:round;stroke-linejoin:round;stroke-miterlimit:4;stroke-dasharray:none;stroke-opacity:1"
       transform="matrix(0.9576131,0,0,0.95760451,19.97701,3.7838604)">
      <path
         d="m 456.74463,35.474741 q -1.95,1.875 -4.125,4.05 -2.1,2.175 -4.275,4.575 -2.175,2.325 -4.275,4.8 -2.025,2.4 -3.825,4.725 h 12.15 z m 13.725,-13.2 -7.575,31.35 h 5.475 l -2.175,9 h -5.55 l -2.85,11.625 h -10.65 l 2.775,-11.625 h -22.275 l 1.875,-8.25 q 2.4,-3.3 5.85,-7.425 3.45,-4.2 7.5,-8.55 4.05,-4.35 8.4,-8.55 4.35,-4.2 8.55,-7.575 z"
         style="font-style:italic;font-variant:normal;font-weight:bold;font-stretch:normal;font-size:75px;font-family:Ubuntu;-inkscape-font-specification:'Ubuntu Bold Italic';fill:none;stroke:#000000;stroke-width:1.5664;stroke-linecap:round;stroke-linejoin:round;stroke-miterlimit:4;stroke-dasharray:none;stroke-opacity:1"
         id="path1208" />
    </g>
    <g
       aria-label="5"
       id="text1094"
       style="font-size:75px;line-height:1.25;font-family:'URW Bookman';-inkscape-font-specification:'URW Bookman';letter-spacing:0px;word-spacing:0px;fill:none;stroke:#000000;stroke-width:1.5664;stroke-linecap:round;stroke-linejoin:round;stroke-miterlimit:4;stroke-dasharray:none;stroke-opacity:1"
       transform="matrix(0.9576131,0,0,0.95760451,23.323232,3.281118)">
      <path
         d="m 531.9891,62.699741 q 2.625,1.575 5.625,2.4 3,0.825 5.775,0.825 5.4,0 8.25,-2.025 2.85,-2.025 2.85,-6.3 0,-1.8 -0.975,-3.225 -0.975,-1.5 -3.15,-2.475 -2.175,-1.05 -5.85,-1.575 -3.6,-0.6 -8.85,-0.6 2.475,-6.975 4.725,-14.025 2.25,-7.125 3.975,-13.425 h 27.75 l -2.25,9.3 h -18.525 q -0.75,2.7 -1.65,5.475 -0.825,2.7 -1.5,4.575 4.5,0.375 7.725,1.725 3.3,1.275 5.4,3.3 2.175,2.025 3.225,4.65 1.05,2.55 1.05,5.475 0,4.2 -1.425,7.65 -1.35,3.45 -4.125,5.85 -2.775,2.4 -6.9,3.75 -4.125,1.275 -9.525,1.275 -1.575,0 -3.6,-0.225 -2.025,-0.225 -4.2,-0.675 -2.1,-0.375 -4.2,-1.05 -2.025,-0.675 -3.75,-1.575 z"
         style="font-style:italic;font-variant:normal;font-weight:bold;font-stretch:normal;font-size:75px;font-family:Ubuntu;-inkscape-font-specification:'Ubuntu Bold Italic';fill:none;stroke:#000000;stroke-width:1.5664;stroke-linecap:round;stroke-linejoin:round;stroke-miterlimit:4;stroke-dasharray:none;stroke-opacity:1"
         id="path1211" />
    </g>
    <g
       aria-label="6"
       id="text1098"
       style="font-size:75px;line-height:1.25;font-family:'URW Bookman';-inkscape-font-specification:'URW Bookman';letter-spacing:0px;word-spacing:0px;fill:none;stroke:#000000;stroke-width:1.5664;stroke-linecap:round;stroke-linejoin:round;stroke-miterlimit:4;stroke-dasharray:none;stroke-opacity:1"
       transform="matrix(0.9576131,0,0,0.95760451,21.661166,13.341457)">
      <path
         d="m 48.643204,124.85875 q -4.65,0.15 -8.7,0.675 -3.975,0.525 -7.35,1.95 -3.3,1.425 -5.85,3.825 -2.475,2.4 -4.125,6.225 1.95,-1.05 4.5,-1.5 2.625,-0.525 4.875,-0.525 2.775,0 5.175,0.9 2.475,0.825 4.275,2.625 1.875,1.725 2.925,4.35 1.05,2.625 1.05,6.075 0,4.875 -1.575,8.625 -1.575,3.675 -4.275,6.225 -2.7,2.55 -6.3,3.9 -3.6,1.275 -7.575,1.275 -3.525,0 -6.525,-1.2 -3,-1.2 -5.25,-3.45 -2.175,-2.325 -3.45,-5.7 -1.2749996,-3.45 -1.2749996,-7.95 0,-6.6 2.2499996,-12.9 2.25,-6.375 6.9,-11.325 4.65,-4.95 11.775,-7.95 7.125,-3.075 16.875,-3.075 0.6,0 1.35,0 0.825,0 1.65,0.075 z m -13.875,25.35 q 0,-3.6 -1.95,-4.95 -1.95,-1.35 -4.65,-1.35 -1.875,0 -3.825,0.525 -1.875,0.45 -3.525,1.125 -0.975,2.85 -0.975,5.85 0,3.6 1.65,6.225 1.65,2.55 5.1,2.55 3.6,0 5.85,-2.625 2.325,-2.625 2.325,-7.35 z"
         style="font-style:italic;font-variant:normal;font-weight:bold;font-stretch:normal;font-size:75px;font-family:Ubuntu;-inkscape-font-specification:'Ubuntu Bold Italic';fill:none;stroke:#000000;stroke-width:1.5664;stroke-linecap:round;stroke-linejoin:round;stroke-miterlimit:4;stroke-dasharray:none;stroke-opacity:1"
         id="path1214" />
    </g>
    <g
       aria-label="7"
       id="text1102"
       style="font-size:75px;line-height:1.25;font-family:'URW Bookman';-inkscape-font-specification:'URW Bookman';letter-spacing:0px;word-spacing:0px;fill:none;stroke:#000000;stroke-width:1.5664;stroke-linecap:round;stroke-linejoin:round;stroke-miterlimit:4;stroke-dasharray:none;stroke-opacity:1"
       transform="matrix(0.9576131,0,0,0.95760451,7.0129363,13.592829)">
      <path
         d="m 128.95361,168.43375 q 1.425,-5.55 4.125,-11.475 2.7,-6 6.075,-11.625 3.375,-5.7 7.125,-10.725 3.75,-5.025 7.275,-8.7 h -22.575 l 2.325,-9.45 h 36.375 l -1.95,8.1 q -2.85,2.4 -6.825,6.975 -3.9,4.575 -7.875,10.5 -3.975,5.85 -7.425,12.675 -3.45,6.75 -5.325,13.725 z"
         style="font-style:italic;font-variant:normal;font-weight:bold;font-stretch:normal;font-size:75px;font-family:Ubuntu;-inkscape-font-specification:'Ubuntu Bold Italic';fill:none;stroke:#000000;stroke-width:1.5664;stroke-linecap:round;stroke-linejoin:round;stroke-miterlimit:4;stroke-dasharray:none;stroke-opacity:1"
         id="path1217" />
    </g>
    <g
       aria-label="8"
       id="text1106"
       style="font-size:75px;line-height:1.25;font-family:'URW Bookman';-inkscape-font-specification:'URW Bookman';letter-spacing:0px;word-spacing:0px;fill:none;stroke:#000000;stroke-width:1.5664;stroke-linecap:round;stroke-linejoin:round;stroke-miterlimit:4;stroke-dasharray:none;stroke-opacity:1"
       transform="matrix(0.9576131,0,0,0.95760451,17.014686,13.664649)">
      <path
         d="m 223.16046,156.65875 q 0,-2.25 0.6,-4.275 0.675,-2.1 2.025,-4.05 1.425,-1.95 3.6,-3.75 2.175,-1.875 5.25,-3.75 -1.8,-1.725 -3.075,-3.9 -1.2,-2.25 -1.2,-5.4 0,-2.925 1.05,-5.85 1.125,-2.925 3.375,-5.25 2.325,-2.325 5.775,-3.75 3.45,-1.425 8.175,-1.425 3.15,0 5.85,0.9 2.7,0.9 4.65,2.55 1.95,1.575 3.075,3.9 1.125,2.325 1.125,5.1 0,1.65 -0.375,3.525 -0.375,1.8 -1.5,3.675 -1.125,1.8 -3.225,3.675 -2.025,1.875 -5.4,3.525 1.275,0.9 2.4,1.95 1.125,1.05 1.95,2.4 0.825,1.35 1.275,3 0.525,1.65 0.525,3.75 0,3.375 -1.35,6.375 -1.275,2.925 -3.825,5.175 -2.475,2.175 -6.225,3.45 -3.75,1.275 -8.55,1.275 -2.775,0 -5.625,-0.675 -2.85,-0.6 -5.175,-2.1 -2.25,-1.575 -3.75,-3.975 -1.425,-2.475 -1.425,-6.075 z m 25.125,-3.15 q 0,-1.5 -0.525,-2.625 -0.525,-1.2 -1.5,-2.175 -0.9,-0.975 -2.175,-1.725 -1.2,-0.825 -2.625,-1.575 -2.325,1.125 -3.825,2.4 -1.425,1.2 -2.325,2.475 -0.825,1.275 -1.125,2.55 -0.3,1.275 -0.3,2.475 0,2.625 1.8,3.975 1.875,1.275 4.5,1.275 1.575,0 3,-0.45 1.5,-0.525 2.625,-1.425 1.125,-0.9 1.8,-2.175 0.675,-1.35 0.675,-3 z m -7.65,-22.65 q 0,2.4 1.5,4.05 1.5,1.65 3.6,2.925 4.35,-2.025 5.775,-4.2 1.5,-2.25 1.5,-4.35 0,-2.4 -1.5,-3.75 -1.5,-1.35 -4.125,-1.35 -3.075,0 -4.95,1.95 -1.8,1.95 -1.8,4.725 z"
         style="font-style:italic;font-variant:normal;font-weight:bold;font-stretch:normal;font-size:75px;font-family:Ubuntu;-inkscape-font-specification:'Ubuntu Bold Italic';fill:none;stroke:#000000;stroke-width:1.5664;stroke-linecap:round;stroke-linejoin:round;stroke-miterlimit:4;stroke-dasharray:none;stroke-opacity:1"
         id="path1220" />
    </g>
    <g
       aria-label="9"
       id="text1110"
       style="font-size:75px;line-height:1.25;font-family:'URW Bookman';-inkscape-font-specification:'URW Bookman';letter-spacing:0px;word-spacing:0px;fill:none;stroke:#000000;stroke-width:1.5664;stroke-linecap:round;stroke-linejoin:round;stroke-miterlimit:4;stroke-dasharray:none;stroke-opacity:1"
       transform="matrix(0.9576131,0,0,0.95760451,22.603586,14.059661)">
      <path
         d="m 322.83798,159.80875 q 4.65,-0.075 8.625,-0.6 4.05,-0.6 7.35,-2.025 3.375,-1.425 5.85,-3.825 2.55,-2.4 4.2,-6.225 -1.95,1.05 -4.575,1.575 -2.55,0.45 -4.8,0.45 -2.775,0 -5.25,-0.825 -2.4,-0.9 -4.275,-2.625 -1.8,-1.8 -2.85,-4.35 -1.05,-2.625 -1.05,-6.15 0,-4.8 1.575,-8.55 1.575,-3.75 4.275,-6.3 2.7,-2.55 6.3,-3.825 3.6,-1.35 7.575,-1.35 3.45,0 6.45,1.2 3.075,1.2 5.25,3.525 2.25,2.25 3.525,5.7 1.275,3.375 1.275,7.875 0,6.6 -2.25,12.975 -2.25,6.3 -6.9,11.25 -4.65,4.95 -11.775,8.025 -7.125,3 -16.875,3 -0.6,0 -1.425,0 -0.75,0 -1.575,-0.075 z m 13.875,-25.35 q 0,3.6 1.95,4.95 1.95,1.35 4.65,1.35 1.875,0 3.75,-0.45 1.95,-0.525 3.6,-1.2 0.975,-2.85 0.975,-5.85 0,-3.6 -1.65,-6.15 -1.65,-2.625 -5.1,-2.625 -3.6,0 -5.925,2.625 -2.25,2.625 -2.25,7.35 z"
         style="font-style:italic;font-variant:normal;font-weight:bold;font-stretch:normal;font-size:75px;font-family:Ubuntu;-inkscape-font-specification:'Ubuntu Bold Italic';fill:none;stroke:#000000;stroke-width:1.5664;stroke-linecap:round;stroke-linejoin:round;stroke-miterlimit:4;stroke-dasharray:none;stroke-opacity:1"
         id="path1223" />
    </g>
    <g
       aria-label="10"
       id="text1114"
       style="font-size:75px;line-height:1.25;font-family:'URW Bookman';-inkscape-font-specification:'URW Bookman';letter-spacing:0px;word-spacing:0px;fill:none;stroke:#000000;stroke-width:1.5664;stroke-linecap:round;stroke-linejoin:round;stroke-miterlimit:4;stroke-dasharray:none;stroke-opacity:1"
       transform="matrix(0.9576131,0,0,0.95760451,-4.6575485,13.664649)">
      <path
         d="m 437.61963,127.25875 q 2.4,-0.9 5.025,-2.025 2.625,-1.2 5.175,-2.55 2.625,-1.425 5.1,-2.925 2.475,-1.575 4.5,-3.3 h 7.8 l -12.525,51.975 h -11.175 l 9,-37.425 q -2.625,1.5 -5.7,2.775 -3.075,1.2 -5.85,2.1 z"
         style="font-style:italic;font-variant:normal;font-weight:bold;font-stretch:normal;font-size:75px;font-family:Ubuntu;-inkscape-font-specification:'Ubuntu Bold Italic';fill:none;stroke:#000000;stroke-width:1.5664;stroke-linecap:round;stroke-linejoin:round;stroke-miterlimit:4;stroke-dasharray:none;stroke-opacity:1"
         id="path1226" />
      <path
         d="m 487.56954,159.88375 q 2.4,0 4.425,-1.425 2.025,-1.425 3.525,-3.75 1.575,-2.325 2.7,-5.25 1.2,-3 1.95,-6.075 0.75,-3.075 1.125,-6 0.375,-2.925 0.375,-5.175 0,-3.825 -1.2,-5.625 -1.125,-1.8 -3.525,-1.8 -2.475,0 -4.5,1.425 -2.025,1.425 -3.6,3.75 -1.575,2.325 -2.775,5.325 -1.125,3 -1.875,6.075 -0.75,3.075 -1.125,6 -0.375,2.925 -0.375,5.175 0,3.9 1.2,5.625 1.2,1.725 3.675,1.725 z m -1.725,9.6 q -3.675,0 -6.225,-1.275 -2.55,-1.35 -4.2,-3.525 -1.575,-2.175 -2.325,-4.875 -0.675,-2.775 -0.675,-5.7 0,-8.55 1.875,-15.675 1.95,-7.125 5.325,-12.3 3.45,-5.175 8.25,-8.025 4.8,-2.85 10.65,-2.85 3.675,0 6.225,1.35 2.55,1.275 4.125,3.45 1.65,2.175 2.325,4.95 0.75,2.7 0.75,5.625 0,8.55 -1.95,15.675 -1.875,7.125 -5.325,12.3 -3.375,5.175 -8.175,8.025 -4.8,2.85 -10.65,2.85 z"
         style="font-style:italic;font-variant:normal;font-weight:bold;font-stretch:normal;font-size:75px;font-family:Ubuntu;-inkscape-font-specification:'Ubuntu Bold Italic';fill:none;stroke:#000000;stroke-width:1.5664;stroke-linecap:round;stroke-linejoin:round;stroke-miterlimit:4;stroke-dasharray:none;stroke-opacity:1"
         id="path1228" />
    </g>
    <g
       aria-label="11"
       id="text1118"
       style="font-size:75px;line-height:1.25;font-family:'URW Bookman';-inkscape-font-specification:'URW Bookman';letter-spacing:0px;word-spacing:0px;fill:none;stroke:#000000;stroke-width:1.5664;stroke-linecap:round;stroke-linejoin:round;stroke-miterlimit:4;stroke-dasharray:none;stroke-opacity:1"
       transform="matrix(0.9576131,0,0,0.95760451,1.0587773,13.592829)">
      <path
         d="m 538.1391,127.25875 q 2.4,-0.9 5.025,-2.025 2.625,-1.2 5.175,-2.55 2.625,-1.425 5.1,-2.925 2.475,-1.575 4.5,-3.3 h 7.8 l -12.525,51.975 h -11.175 l 9,-37.425 q -2.625,1.5 -5.7,2.775 -3.075,1.2 -5.85,2.1 z"
         style="font-style:italic;font-variant:normal;font-weight:bold;font-stretch:normal;font-size:75px;font-family:Ubuntu;-inkscape-font-specification:'Ubuntu Bold Italic';fill:none;stroke:#000000;stroke-width:1.5664;stroke-linecap:round;stroke-linejoin:round;stroke-miterlimit:4;stroke-dasharray:none;stroke-opacity:1"
         id="path1231" />
      <path
         d="m 580.73901,127.25875 q 2.4,-0.9 5.025,-2.025 2.625,-1.2 5.175,-2.55 2.625,-1.425 5.1,-2.925 2.475,-1.575 4.5,-3.3 h 7.8 l -12.525,51.975 h -11.175 l 9,-37.425 q -2.625,1.5 -5.7,2.775 -3.075,1.2 -5.85,2.1 z"
         style="font-style:italic;font-variant:normal;font-weight:bold;font-stretch:normal;font-size:75px;font-family:Ubuntu;-inkscape-font-specification:'Ubuntu Bold Italic';fill:none;stroke:#000000;stroke-width:1.5664;stroke-linecap:round;stroke-linejoin:round;stroke-miterlimit:4;stroke-dasharray:none;stroke-opacity:1"
         id="path1233" />
    </g>
    <g
       aria-label="12"
       id="text1122"
       style="font-size:75px;line-height:1.25;font-family:'URW Bookman';-inkscape-font-specification:'URW Bookman';letter-spacing:0px;word-spacing:0px;fill:none;stroke:#000000;stroke-width:1.5664;stroke-linecap:round;stroke-linejoin:round;stroke-miterlimit:4;stroke-dasharray:none;stroke-opacity:1"
       transform="matrix(0.9576131,0,0,0.95760451,-19.503585,11.817922)">
      <path
         d="m 35.417566,234.13948 q 2.4,-0.9 5.025,-2.025 2.625,-1.2 5.175,-2.55 2.625,-1.425 5.1,-2.925 2.475,-1.575 4.5,-3.3 h 7.8 l -12.525,51.975 h -11.175 l 9,-37.425 q -2.625,1.5 -5.7,2.775 -3.075,1.2 -5.85,2.1 z"
         style="font-style:italic;font-variant:normal;font-weight:bold;font-stretch:normal;font-size:75px;font-family:Ubuntu;-inkscape-font-specification:'Ubuntu Bold Italic';fill:none;stroke:#000000;stroke-width:1.5664;stroke-linecap:round;stroke-linejoin:round;stroke-miterlimit:4;stroke-dasharray:none;stroke-opacity:1"
         id="path1236" />
      <path
         d="m 95.642481,222.13948 q 3,0 5.549999,0.975 2.625,0.975 4.5,2.7 1.95,1.65 3,3.9 1.05,2.25 1.05,4.8 0,2.85 -0.6,5.1 -0.6,2.25 -2.025,4.35 -1.425,2.1 -3.825,4.275 -2.325,2.175 -5.774999,4.875 -2.025,1.575 -4.125,3 -2.025,1.425 -4.05,2.925 -1.95,1.5 -3.825,3.225 -1.875,1.65 -3.525,3.75 h 22.349999 l -2.25,9.3 H 67.517481 q 0.675,-4.725 2.325,-8.175 1.65,-3.45 4.05,-6.225 2.475,-2.85 5.55,-5.25 3.075,-2.475 6.675,-5.25 3.375,-2.625 5.7,-4.5 2.4,-1.95 3.825,-3.525 1.5,-1.65 2.175,-3.075 0.675,-1.425 0.675,-3 0,-1.95 -1.425,-3.225 -1.35,-1.35 -3.525,-1.35 -3.075,0 -6,1.35 -2.925,1.275 -6.375,3.9 l -3.825,-8.175 q 4.5,-3.675 9,-5.175 4.5,-1.5 9.3,-1.5 z"
         style="font-style:italic;font-variant:normal;font-weight:bold;font-stretch:normal;font-size:75px;font-family:Ubuntu;-inkscape-font-specification:'Ubuntu Bold Italic';fill:none;stroke:#000000;stroke-width:1.5664;stroke-linecap:round;stroke-linejoin:round;stroke-miterlimit:4;stroke-dasharray:none;stroke-opacity:1"
         id="path1238" />
    </g>
    <g
       aria-label="13"
       id="text1126"
       style="font-size:75px;line-height:1.25;font-family:'URW Bookman';-inkscape-font-specification:'URW Bookman';letter-spacing:0px;word-spacing:0px;fill:none;stroke:#000000;stroke-width:1.5664;stroke-linecap:round;stroke-linejoin:round;stroke-miterlimit:4;stroke-dasharray:none;stroke-opacity:1"
       transform="matrix(0.9576131,0,0,0.95760451,-19.321107,13.341557)">
      <path
         d="m 140.21582,232.02339 q 2.4,-0.9 5.025,-2.025 2.625,-1.2 5.175,-2.55 2.625,-1.425 5.1,-2.925 2.475,-1.575 4.5,-3.3 h 7.8 l -12.525,51.975 h -11.175 l 9,-37.425 q -2.625,1.5 -5.7,2.775 -3.075,1.2 -5.85,2.1 z"
         style="font-style:italic;font-variant:normal;font-weight:bold;font-stretch:normal;font-size:75px;font-family:Ubuntu;-inkscape-font-specification:'Ubuntu Bold Italic';fill:none;stroke:#000000;stroke-width:1.5664;stroke-linecap:round;stroke-linejoin:round;stroke-miterlimit:4;stroke-dasharray:none;stroke-opacity:1"
         id="path1241" />
      <path
         d="m 203.36573,245.59839 q 3.15,1.5 4.875,4.65 1.725,3.075 1.725,6.75 0,3.075 -1.275,6.15 -1.275,3.075 -4.05,5.55 -2.775,2.475 -7.05,4.05 -4.275,1.5 -10.275,1.5 -8.55,0 -15.375,-3.525 l 4.05,-8.85 q 2.175,1.5 5.4,2.475 3.225,0.9 6.6,0.9 2.1,0 4.05,-0.45 2.025,-0.45 3.525,-1.5 1.5,-1.05 2.4,-2.7 0.9,-1.65 0.9,-4.05 0,-3.075 -2.55,-4.65 -2.475,-1.575 -6.675,-1.575 h -4.8 l 2.175,-8.85 h 5.4 q 1.575,0 3.3,-0.3 1.725,-0.3 3.15,-1.05 1.425,-0.825 2.325,-2.1 0.975,-1.35 0.975,-3.45 0,-2.625 -1.8,-3.825 -1.8,-1.275 -4.725,-1.275 -2.325,0 -5.175,0.825 -2.775,0.825 -5.775,2.4 l -2.85,-8.4 q 3.675,-2.1 7.575,-3.15 3.9,-1.125 8.1,-1.125 3.975,0 6.975,1.125 3,1.05 4.95,2.85 2.025,1.8 3,4.125 0.975,2.25 0.975,4.65 0,1.95 -0.675,3.9 -0.6,1.875 -1.875,3.6 -1.2,1.65 -3.15,3.075 -1.875,1.35 -4.35,2.25 z"
         style="font-style:italic;font-variant:normal;font-weight:bold;font-stretch:normal;font-size:75px;font-family:Ubuntu;-inkscape-font-specification:'Ubuntu Bold Italic';fill:none;stroke:#000000;stroke-width:1.5664;stroke-linecap:round;stroke-linejoin:round;stroke-miterlimit:4;stroke-dasharray:none;stroke-opacity:1"
         id="path1243" />
    </g>
    <g
       aria-label="14"
       id="text1130"
       style="font-size:75px;line-height:1.25;font-family:'URW Bookman';-inkscape-font-specification:'URW Bookman';letter-spacing:0px;word-spacing:0px;fill:none;stroke:#000000;stroke-width:1.5664;stroke-linecap:round;stroke-linejoin:round;stroke-miterlimit:4;stroke-dasharray:none;stroke-opacity:1"
       transform="matrix(0.9576131,0,0,0.95760451,-15.707014,9.2169247)">
      <path
         d="m 239.74307,236.25563 q 2.4,-0.9 5.025,-2.025 2.625,-1.2 5.175,-2.55 2.625,-1.425 5.1,-2.925 2.475,-1.575 4.5,-3.3 h 7.8 l -12.525,51.975 h -11.175 l 9,-37.425 q -2.625,1.5 -5.7,2.775 -3.075,1.2 -5.85,2.1 z"
         style="font-style:italic;font-variant:normal;font-weight:bold;font-stretch:normal;font-size:75px;font-family:Ubuntu;-inkscape-font-specification:'Ubuntu Bold Italic';fill:none;stroke:#000000;stroke-width:1.5664;stroke-linecap:round;stroke-linejoin:round;stroke-miterlimit:4;stroke-dasharray:none;stroke-opacity:1"
         id="path1246" />
      <path
         d="m 301.46799,238.65563 q -1.95,1.875 -4.125,4.05 -2.1,2.175 -4.275,4.575 -2.175,2.325 -4.275,4.8 -2.025,2.4 -3.825,4.725 h 12.15 z m 13.725,-13.2 -7.575,31.35 h 5.475 l -2.175,9 h -5.55 l -2.85,11.625 h -10.65 l 2.775,-11.625 h -22.275 l 1.875,-8.25 q 2.4,-3.3 5.85,-7.425 3.45,-4.2 7.5,-8.55 4.05,-4.35 8.4,-8.55 4.35,-4.2 8.55,-7.575 z"
         style="font-style:italic;font-variant:normal;font-weight:bold;font-stretch:normal;font-size:75px;font-family:Ubuntu;-inkscape-font-specification:'Ubuntu Bold Italic';fill:none;stroke:#000000;stroke-width:1.5664;stroke-linecap:round;stroke-linejoin:round;stroke-miterlimit:4;stroke-dasharray:none;stroke-opacity:1"
         id="path1248" />
    </g>
    <g
       aria-label="15"
       id="text1134"
       style="font-size:75px;line-height:1.25;font-family:'URW Bookman';-inkscape-font-specification:'URW Bookman';letter-spacing:0px;word-spacing:0px;fill:none;stroke:#000000;stroke-width:1.5664;stroke-linecap:round;stroke-linejoin:round;stroke-miterlimit:4;stroke-dasharray:none;stroke-opacity:1"
       transform="matrix(0.9576131,0,0,0.95760451,-1.3997409,12.766994)">
      <path
         d="m 328.66632,232.02339 q 2.4,-0.9 5.025,-2.025 2.625,-1.2 5.175,-2.55 2.625,-1.425 5.1,-2.925 2.475,-1.575 4.5,-3.3 h 7.8 l -12.525,51.975 h -11.175 l 9,-37.425 q -2.625,1.5 -5.7,2.775 -3.075,1.2 -5.85,2.1 z"
         style="font-style:italic;font-variant:normal;font-weight:bold;font-stretch:normal;font-size:75px;font-family:Ubuntu;-inkscape-font-specification:'Ubuntu Bold Italic';fill:none;stroke:#000000;stroke-width:1.5664;stroke-linecap:round;stroke-linejoin:round;stroke-miterlimit:4;stroke-dasharray:none;stroke-opacity:1"
         id="path1251" />
      <path
         d="m 365.11624,261.64839 q 2.625,1.575 5.625,2.4 3,0.825 5.775,0.825 5.4,0 8.25,-2.025 2.85,-2.025 2.85,-6.3 0,-1.8 -0.975,-3.225 -0.975,-1.5 -3.15,-2.475 -2.175,-1.05 -5.85,-1.575 -3.6,-0.6 -8.85,-0.6 2.475,-6.975 4.725,-14.025 2.25,-7.125 3.975,-13.425 h 27.75 l -2.25,9.3 h -18.525 q -0.75,2.7 -1.65,5.475 -0.825,2.7 -1.5,4.575 4.5,0.375 7.725,1.725 3.3,1.275 5.4,3.3 2.175,2.025 3.225,4.65 1.05,2.55 1.05,5.475 0,4.2 -1.425,7.65 -1.35,3.45 -4.125,5.85 -2.775,2.4 -6.9,3.75 -4.125,1.275 -9.525,1.275 -1.575,0 -3.6,-0.225 -2.025,-0.225 -4.2,-0.675 -2.1,-0.375 -4.2,-1.05 -2.025,-0.675 -3.75,-1.575 z"
         style="font-style:italic;font-variant:normal;font-weight:bold;font-stretch:normal;font-size:75px;font-family:Ubuntu;-inkscape-font-specification:'Ubuntu Bold Italic';fill:none;stroke:#000000;stroke-width:1.5664;stroke-linecap:round;stroke-linejoin:round;stroke-miterlimit:4;stroke-dasharray:none;stroke-opacity:1"
         id="path1253" />
    </g>
    <g
       aria-label="16"
       id="text1138"
       style="font-size:75px;line-height:1.25;font-family:'URW Bookman';-inkscape-font-specification:'URW Bookman';letter-spacing:0px;word-spacing:0px;fill:none;stroke:#000000;stroke-width:1.5664;stroke-linecap:round;stroke-linejoin:round;stroke-miterlimit:4;stroke-dasharray:none;stroke-opacity:1"
       transform="matrix(0.9576131,0,0,0.95760451,2.4851639,14.031578)">
      <path
         d="m 429.18576,230.96532 q 2.4,-0.9 5.025,-2.025 2.625,-1.2 5.175,-2.55 2.625,-1.425 5.1,-2.925 2.475,-1.575 4.5,-3.3 h 7.8 l -12.525,51.975 h -11.175 l 9,-37.425 q -2.625,1.5 -5.7,2.775 -3.075,1.2 -5.85,2.1 z"
         style="font-style:italic;font-variant:normal;font-weight:bold;font-stretch:normal;font-size:75px;font-family:Ubuntu;-inkscape-font-specification:'Ubuntu Bold Italic';fill:none;stroke:#000000;stroke-width:1.5664;stroke-linecap:round;stroke-linejoin:round;stroke-miterlimit:4;stroke-dasharray:none;stroke-opacity:1"
         id="path1256" />
      <path
         d="m 504.11068,228.56532 q -4.65,0.15 -8.7,0.675 -3.975,0.525 -7.35,1.95 -3.3,1.425 -5.85,3.825 -2.475,2.4 -4.125,6.225 1.95,-1.05 4.5,-1.5 2.625,-0.525 4.875,-0.525 2.775,0 5.175,0.9 2.475,0.825 4.275,2.625 1.875,1.725 2.925,4.35 1.05,2.625 1.05,6.075 0,4.875 -1.575,8.625 -1.575,3.675 -4.275,6.225 -2.7,2.55 -6.3,3.9 -3.6,1.275 -7.575,1.275 -3.525,0 -6.525,-1.2 -3,-1.2 -5.25,-3.45 -2.175,-2.325 -3.45,-5.7 -1.275,-3.45 -1.275,-7.95 0,-6.6 2.25,-12.9 2.25,-6.375 6.9,-11.325 4.65,-4.95 11.775,-7.95 7.125,-3.075 16.875,-3.075 0.6,0 1.35,0 0.825,0 1.65,0.075 z m -13.875,25.35 q 0,-3.6 -1.95,-4.95 -1.95,-1.35 -4.65,-1.35 -1.875,0 -3.825,0.525 -1.875,0.45 -3.525,1.125 -0.975,2.85 -0.975,5.85 0,3.6 1.65,6.225 1.65,2.55 5.1,2.55 3.6,0 5.85,-2.625 2.325,-2.625 2.325,-7.35 z"
         style="font-style:italic;font-variant:normal;font-weight:bold;font-stretch:normal;font-size:75px;font-family:Ubuntu;-inkscape-font-specification:'Ubuntu Bold Italic';fill:none;stroke:#000000;stroke-width:1.5664;stroke-linecap:round;stroke-linejoin:round;stroke-miterlimit:4;stroke-dasharray:none;stroke-opacity:1"
         id="path1258" />
    </g>
    <g
       aria-label="17"
       id="text1142"
       style="font-size:75px;line-height:1.25;font-family:'URW Bookman';-inkscape-font-specification:'URW Bookman';letter-spacing:0px;word-spacing:0px;fill:none;stroke:#000000;stroke-width:1.5664;stroke-linecap:round;stroke-linejoin:round;stroke-miterlimit:4;stroke-dasharray:none;stroke-opacity:1"
       transform="matrix(0.9576131,0,0,0.95760451,7.2040631,9.2169247)">
      <path
         d="m 527.5968,236.25563 q 2.4,-0.9 5.025,-2.025 2.625,-1.2 5.175,-2.55 2.625,-1.425 5.1,-2.925 2.475,-1.575 4.5,-3.3 h 7.8 l -12.525,51.975 h -11.175 l 9,-37.425 q -2.625,1.5 -5.7,2.775 -3.075,1.2 -5.85,2.1 z"
         style="font-style:italic;font-variant:normal;font-weight:bold;font-stretch:normal;font-size:75px;font-family:Ubuntu;-inkscape-font-specification:'Ubuntu Bold Italic';fill:none;stroke:#000000;stroke-width:1.5664;stroke-linecap:round;stroke-linejoin:round;stroke-miterlimit:4;stroke-dasharray:none;stroke-opacity:1"
         id="path1261" />
      <path
         d="m 565.32172,277.43063 q 1.425,-5.55 4.125,-11.475 2.7,-6 6.075,-11.625 3.375,-5.7 7.125,-10.725 3.75,-5.025 7.275,-8.7 h -22.575 l 2.325,-9.45 h 36.375 l -1.95,8.1 q -2.85,2.4 -6.825,6.975 -3.9,4.575 -7.875,10.5 -3.975,5.85 -7.425,12.675 -3.45,6.75 -5.325,13.725 z"
         style="font-style:italic;font-variant:normal;font-weight:bold;font-stretch:normal;font-size:75px;font-family:Ubuntu;-inkscape-font-specification:'Ubuntu Bold Italic';fill:none;stroke:#000000;stroke-width:1.5664;stroke-linecap:round;stroke-linejoin:round;stroke-miterlimit:4;stroke-dasharray:none;stroke-opacity:1"
         id="path1263" />
    </g>
    <g
       aria-label="18"
       id="text1146"
       style="font-size:75px;line-height:1.25;font-family:'URW Bookman';-inkscape-font-specification:'URW Bookman';letter-spacing:0px;word-spacing:0px;fill:none;stroke:#000000;stroke-width:1.5664;stroke-linecap:round;stroke-linejoin:round;stroke-miterlimit:4;stroke-dasharray:none;stroke-opacity:1"
       transform="matrix(0.9576131,0,0,0.95760451,-18.804556,21.124042)">
      <path
         d="m 34.425095,328.3236 q 2.4,-0.9 5.025,-2.025 2.625,-1.2 5.175,-2.55 2.625,-1.425 5.1,-2.925 2.475,-1.575 4.5,-3.3 h 7.8 l -12.525,51.975 h -11.175 l 9,-37.425 q -2.625,1.5 -5.7,2.775 -3.075,1.2 -5.85,2.1 z"
         style="font-style:italic;font-variant:normal;font-weight:bold;font-stretch:normal;font-size:75px;font-family:Ubuntu;-inkscape-font-specification:'Ubuntu Bold Italic';fill:none;stroke:#000000;stroke-width:1.5664;stroke-linecap:round;stroke-linejoin:round;stroke-miterlimit:4;stroke-dasharray:none;stroke-opacity:1"
         id="path1266" />
      <path
         d="m 69.000009,357.7236 q 0,-2.25 0.6,-4.275 0.675,-2.1 2.025,-4.05 1.425,-1.95 3.6,-3.75 2.175,-1.875 5.25,-3.75 -1.8,-1.725 -3.075,-3.9 -1.2,-2.25 -1.2,-5.4 0,-2.925 1.05,-5.85 1.125,-2.925 3.375,-5.25 2.325,-2.325 5.775,-3.75 3.45,-1.425 8.175,-1.425 3.15,0 5.850001,0.9 2.7,0.9 4.65,2.55 1.95,1.575 3.075,3.9 1.125,2.325 1.125,5.1 0,1.65 -0.375,3.525 -0.375,1.8 -1.5,3.675 -1.125,1.8 -3.225,3.675 -2.025,1.875 -5.400001,3.525 1.275001,0.9 2.400001,1.95 1.125,1.05 1.95,2.4 0.825,1.35 1.275,3 0.525,1.65 0.525,3.75 0,3.375 -1.35,6.375 -1.275,2.925 -3.825001,5.175 -2.475,2.175 -6.225,3.45 -3.75,1.275 -8.55,1.275 -2.775,0 -5.625,-0.675 -2.85,-0.6 -5.175,-2.1 -2.25,-1.575 -3.75,-3.975 -1.425,-2.475 -1.425,-6.075 z m 25.125,-3.15 q 0,-1.5 -0.525,-2.625 -0.525,-1.2 -1.5,-2.175 -0.9,-0.975 -2.175,-1.725 -1.2,-0.825 -2.625,-1.575 -2.325,1.125 -3.825,2.4 -1.425,1.2 -2.325,2.475 -0.825,1.275 -1.125,2.55 -0.3,1.275 -0.3,2.475 0,2.625 1.8,3.975 1.875,1.275 4.5,1.275 1.575,0 3,-0.45 1.5,-0.525 2.625,-1.425 1.125,-0.9 1.8,-2.175 0.675,-1.35 0.675,-3 z m -7.65,-22.65 q 0,2.4 1.5,4.05 1.5,1.65 3.6,2.925 4.35,-2.025 5.775,-4.2 1.5,-2.25 1.5,-4.35 0,-2.4 -1.5,-3.75 -1.5,-1.35 -4.125,-1.35 -3.075,0 -4.95,1.95 -1.8,1.95 -1.8,4.725 z"
         style="font-style:italic;font-variant:normal;font-weight:bold;font-stretch:normal;font-size:75px;font-family:Ubuntu;-inkscape-font-specification:'Ubuntu Bold Italic';fill:none;stroke:#000000;stroke-width:1.5664;stroke-linecap:round;stroke-linejoin:round;stroke-miterlimit:4;stroke-dasharray:none;stroke-opacity:1"
         id="path1268" />
    </g>
    <g
       aria-label="19"
       id="text1150"
       style="font-size:75px;line-height:1.25;font-family:'URW Bookman';-inkscape-font-specification:'URW Bookman';letter-spacing:0px;word-spacing:0px;fill:none;stroke:#000000;stroke-width:1.5664;stroke-linecap:round;stroke-linejoin:round;stroke-miterlimit:4;stroke-dasharray:none;stroke-opacity:1"
       transform="matrix(0.9576131,0,0,0.95760451,-17.82803,17.450173)">
      <path
         d="m 138.16915,332.57262 q 2.4,-0.9 5.025,-2.025 2.625,-1.2 5.175,-2.55 2.625,-1.425 5.1,-2.925 2.475,-1.575 4.5,-3.3 h 7.8 l -12.525,51.975 h -11.175 l 9,-37.425 q -2.625,1.5 -5.7,2.775 -3.075,1.2 -5.85,2.1 z"
         style="font-style:italic;font-variant:normal;font-weight:bold;font-stretch:normal;font-size:75px;font-family:Ubuntu;-inkscape-font-specification:'Ubuntu Bold Italic';fill:none;stroke:#000000;stroke-width:1.5664;stroke-linecap:round;stroke-linejoin:round;stroke-miterlimit:4;stroke-dasharray:none;stroke-opacity:1"
         id="path1271" />
      <path
         d="m 172.89407,365.12262 q 4.65,-0.075 8.625,-0.6 4.05,-0.6 7.35,-2.025 3.375,-1.425 5.85,-3.825 2.55,-2.4 4.2,-6.225 -1.95,1.05 -4.575,1.575 -2.55,0.45 -4.8,0.45 -2.775,0 -5.25,-0.825 -2.4,-0.9 -4.275,-2.625 -1.8,-1.8 -2.85,-4.35 -1.05,-2.625 -1.05,-6.15 0,-4.8 1.575,-8.55 1.575,-3.75 4.275,-6.3 2.7,-2.55 6.3,-3.825 3.6,-1.35 7.575,-1.35 3.45,0 6.45,1.2 3.075,1.2 5.25,3.525 2.25,2.25 3.525,5.7 1.275,3.375 1.275,7.875 0,6.6 -2.25,12.975 -2.25,6.3 -6.9,11.25 -4.65,4.95 -11.775,8.025 -7.125,3 -16.875,3 -0.6,0 -1.425,0 -0.75,0 -1.575,-0.075 z m 13.875,-25.35 q 0,3.6 1.95,4.95 1.95,1.35 4.65,1.35 1.875,0 3.75,-0.45 1.95,-0.525 3.6,-1.2 0.975,-2.85 0.975,-5.85 0,-3.6 -1.65,-6.15 -1.65,-2.625 -5.1,-2.625 -3.6,0 -5.925,2.625 -2.25,2.625 -2.25,7.35 z"
         style="font-style:italic;font-variant:normal;font-weight:bold;font-stretch:normal;font-size:75px;font-family:Ubuntu;-inkscape-font-specification:'Ubuntu Bold Italic';fill:none;stroke:#000000;stroke-width:1.5664;stroke-linecap:round;stroke-linejoin:round;stroke-miterlimit:4;stroke-dasharray:none;stroke-opacity:1"
         id="path1273" />
    </g>
    <g
       aria-label="20"
       id="text1154"
       style="font-size:75px;line-height:1.25;font-family:'URW Bookman';-inkscape-font-specification:'URW Bookman';letter-spacing:0px;word-spacing:0px;fill:none;stroke:#000000;stroke-width:1.5664;stroke-linecap:round;stroke-linejoin:round;stroke-miterlimit:4;stroke-dasharray:none;stroke-opacity:1"
       transform="matrix(0.9576131,0,0,0.95760451,-10.021883,11.989222)">
      <path
         d="m 257.24379,325.86284 q 3,0 5.55,0.975 2.625,0.975 4.5,2.7 1.95,1.65 3,3.9 1.05,2.25 1.05,4.8 0,2.85 -0.6,5.1 -0.6,2.25 -2.025,4.35 -1.425,2.1 -3.825,4.275 -2.325,2.175 -5.775,4.875 -2.025,1.575 -4.125,3 -2.025,1.425 -4.05,2.925 -1.95,1.5 -3.825,3.225 -1.875,1.65 -3.525,3.75 h 22.35 l -2.25,9.3 h -34.575 q 0.675,-4.725 2.325,-8.175 1.65,-3.45 4.05,-6.225 2.475,-2.85 5.55,-5.25 3.075,-2.475 6.675,-5.25 3.375,-2.625 5.7,-4.5 2.4,-1.95 3.825,-3.525 1.5,-1.65 2.175,-3.075 0.675,-1.425 0.675,-3 0,-1.95 -1.425,-3.225 -1.35,-1.35 -3.525,-1.35 -3.075,0 -6,1.35 -2.925,1.275 -6.375,3.9 l -3.825,-8.175 q 4.5,-3.675 9,-5.175 4.5,-1.5 9.3,-1.5 z"
         style="font-style:italic;font-variant:normal;font-weight:bold;font-stretch:normal;font-size:75px;font-family:Ubuntu;-inkscape-font-specification:'Ubuntu Bold Italic';fill:none;stroke:#000000;stroke-width:1.5664;stroke-linecap:round;stroke-linejoin:round;stroke-miterlimit:4;stroke-dasharray:none;stroke-opacity:1"
         id="path1276" />
      <path
         d="m 289.5687,370.48784 q 2.4,0 4.425,-1.425 2.025,-1.425 3.525,-3.75 1.575,-2.325 2.7,-5.25 1.2,-3 1.95,-6.075 0.75,-3.075 1.125,-6 0.375,-2.925 0.375,-5.175 0,-3.825 -1.2,-5.625 -1.125,-1.8 -3.525,-1.8 -2.475,0 -4.5,1.425 -2.025,1.425 -3.6,3.75 -1.575,2.325 -2.775,5.325 -1.125,3 -1.875,6.075 -0.75,3.075 -1.125,6 -0.375,2.925 -0.375,5.175 0,3.9 1.2,5.625 1.2,1.725 3.675,1.725 z m -1.725,9.6 q -3.675,0 -6.225,-1.275 -2.55,-1.35 -4.2,-3.525 -1.575,-2.175 -2.325,-4.875 -0.675,-2.775 -0.675,-5.7 0,-8.55 1.875,-15.675 1.95,-7.125 5.325,-12.3 3.45,-5.175 8.25,-8.025 4.8,-2.85 10.65,-2.85 3.675,0 6.225,1.35 2.55,1.275 4.125,3.45 1.65,2.175 2.325,4.95 0.75,2.7 0.75,5.625 0,8.55 -1.95,15.675 -1.875,7.125 -5.325,12.3 -3.375,5.175 -8.175,8.025 -4.8,2.85 -10.65,2.85 z"
         style="font-style:italic;font-variant:normal;font-weight:bold;font-stretch:normal;font-size:75px;font-family:Ubuntu;-inkscape-font-specification:'Ubuntu Bold Italic';fill:none;stroke:#000000;stroke-width:1.5664;stroke-linecap:round;stroke-linejoin:round;stroke-miterlimit:4;stroke-dasharray:none;stroke-opacity:1"
         id="path1278" />
    </g>
    <g
       aria-label="21"
       id="text1158"
       style="font-size:75px;line-height:1.25;font-family:'URW Bookman';-inkscape-font-specification:'URW Bookman';letter-spacing:0px;word-spacing:0px;fill:none;stroke:#000000;stroke-width:1.5664;stroke-linecap:round;stroke-linejoin:round;stroke-miterlimit:4;stroke-dasharray:none;stroke-opacity:1"
       transform="matrix(0.9576131,0,0,0.95760451,-7.33409,12.491965)">
      <path
         d="m 360.92584,325.86284 q 3,0 5.55,0.975 2.625,0.975 4.5,2.7 1.95,1.65 3,3.9 1.05,2.25 1.05,4.8 0,2.85 -0.6,5.1 -0.6,2.25 -2.025,4.35 -1.425,2.1 -3.825,4.275 -2.325,2.175 -5.775,4.875 -2.025,1.575 -4.125,3 -2.025,1.425 -4.05,2.925 -1.95,1.5 -3.825,3.225 -1.875,1.65 -3.525,3.75 h 22.35 l -2.25,9.3 h -34.575 q 0.675,-4.725 2.325,-8.175 1.65,-3.45 4.05,-6.225 2.475,-2.85 5.55,-5.25 3.075,-2.475 6.675,-5.25 3.375,-2.625 5.7,-4.5 2.4,-1.95 3.825,-3.525 1.5,-1.65 2.175,-3.075 0.675,-1.425 0.675,-3 0,-1.95 -1.425,-3.225 -1.35,-1.35 -3.525,-1.35 -3.075,0 -6,1.35 -2.925,1.275 -6.375,3.9 l -3.825,-8.175 q 4.5,-3.675 9,-5.175 4.5,-1.5 9.3,-1.5 z"
         style="font-style:italic;font-variant:normal;font-weight:bold;font-stretch:normal;font-size:75px;font-family:Ubuntu;-inkscape-font-specification:'Ubuntu Bold Italic';fill:none;stroke:#000000;stroke-width:1.5664;stroke-linecap:round;stroke-linejoin:round;stroke-miterlimit:4;stroke-dasharray:none;stroke-opacity:1"
         id="path1281" />
      <path
         d="m 385.90076,337.86284 q 2.4,-0.9 5.025,-2.025 2.625,-1.2 5.175,-2.55 2.625,-1.425 5.1,-2.925 2.475,-1.575 4.5,-3.3 h 7.8 l -12.525,51.975 h -11.175 l 9,-37.425 q -2.625,1.5 -5.7,2.775 -3.075,1.2 -5.85,2.1 z"
         style="font-style:italic;font-variant:normal;font-weight:bold;font-stretch:normal;font-size:75px;font-family:Ubuntu;-inkscape-font-specification:'Ubuntu Bold Italic';fill:none;stroke:#000000;stroke-width:1.5664;stroke-linecap:round;stroke-linejoin:round;stroke-miterlimit:4;stroke-dasharray:none;stroke-opacity:1"
         id="path1283" />
    </g>
    <g
       aria-label="22"
       id="text1162"
       style="font-size:75px;line-height:1.25;font-family:'URW Bookman';-inkscape-font-specification:'URW Bookman';letter-spacing:0px;word-spacing:0px;fill:none;stroke:#000000;stroke-width:1.5664;stroke-linecap:round;stroke-linejoin:round;stroke-miterlimit:4;stroke-dasharray:none;stroke-opacity:1"
       transform="matrix(0.9576131,0,0,0.95760451,-5.5679097,12.491965)">
      <path
         d="m 461.44528,325.86284 q 3,0 5.55,0.975 2.625,0.975 4.5,2.7 1.95,1.65 3,3.9 1.05,2.25 1.05,4.8 0,2.85 -0.6,5.1 -0.6,2.25 -2.025,4.35 -1.425,2.1 -3.825,4.275 -2.325,2.175 -5.775,4.875 -2.025,1.575 -4.125,3 -2.025,1.425 -4.05,2.925 -1.95,1.5 -3.825,3.225 -1.875,1.65 -3.525,3.75 h 22.35 l -2.25,9.3 h -34.575 q 0.675,-4.725 2.325,-8.175 1.65,-3.45 4.05,-6.225 2.475,-2.85 5.55,-5.25 3.075,-2.475 6.675,-5.25 3.375,-2.625 5.7,-4.5 2.4,-1.95 3.825,-3.525 1.5,-1.65 2.175,-3.075 0.675,-1.425 0.675,-3 0,-1.95 -1.425,-3.225 -1.35,-1.35 -3.525,-1.35 -3.075,0 -6,1.35 -2.925,1.275 -6.375,3.9 l -3.825,-8.175 q 4.5,-3.675 9,-5.175 4.5,-1.5 9.3,-1.5 z"
         style="font-style:italic;font-variant:normal;font-weight:bold;font-stretch:normal;font-size:75px;font-family:Ubuntu;-inkscape-font-specification:'Ubuntu Bold Italic';fill:none;stroke:#000000;stroke-width:1.5664;stroke-linecap:round;stroke-linejoin:round;stroke-miterlimit:4;stroke-dasharray:none;stroke-opacity:1"
         id="path1286" />
      <path
         d="m 504.0452,325.86284 q 3,0 5.55,0.975 2.625,0.975 4.5,2.7 1.95,1.65 3,3.9 1.05,2.25 1.05,4.8 0,2.85 -0.6,5.1 -0.6,2.25 -2.025,4.35 -1.425,2.1 -3.825,4.275 -2.325,2.175 -5.775,4.875 -2.025,1.575 -4.125,3 -2.025,1.425 -4.05,2.925 -1.95,1.5 -3.825,3.225 -1.875,1.65 -3.525,3.75 h 22.35 l -2.25,9.3 h -34.575 q 0.675,-4.725 2.325,-8.175 1.65,-3.45 4.05,-6.225 2.475,-2.85 5.55,-5.25 3.075,-2.475 6.675,-5.25 3.375,-2.625 5.7,-4.5 2.4,-1.95 3.825,-3.525 1.5,-1.65 2.175,-3.075 0.675,-1.425 0.675,-3 0,-1.95 -1.425,-3.225 -1.35,-1.35 -3.525,-1.35 -3.075,0 -6,1.35 -2.925,1.275 -6.375,3.9 l -3.825,-8.175 q 4.5,-3.675 9,-5.175 4.5,-1.5 9.3,-1.5 z"
         style="font-style:italic;font-variant:normal;font-weight:bold;font-stretch:normal;font-size:75px;font-family:Ubuntu;-inkscape-font-specification:'Ubuntu Bold Italic';fill:none;stroke:#000000;stroke-width:1.5664;stroke-linecap:round;stroke-linejoin:round;stroke-miterlimit:4;stroke-dasharray:none;stroke-opacity:1"
         id="path1288" />
    </g>
    <g
       aria-label="23"
       id="text1166"
       style="font-size:75px;line-height:1.25;font-family:'URW Bookman';-inkscape-font-specification:'URW Bookman';letter-spacing:0px;word-spacing:0px;fill:none;stroke:#000000;stroke-width:1.5664;stroke-linecap:round;stroke-linejoin:round;stroke-miterlimit:4;stroke-dasharray:none;stroke-opacity:1"
       transform="matrix(0.9576131,0,0,0.95760451,11.835475,9.9628452)">
      <path
         d="m 548.26038,327.97893 q 3,0 5.55,0.975 2.625,0.975 4.5,2.7 1.95,1.65 3,3.9 1.05,2.25 1.05,4.8 0,2.85 -0.6,5.1 -0.6,2.25 -2.025,4.35 -1.425,2.1 -3.825,4.275 -2.325,2.175 -5.775,4.875 -2.025,1.575 -4.125,3 -2.025,1.425 -4.05,2.925 -1.95,1.5 -3.825,3.225 -1.875,1.65 -3.525,3.75 h 22.35 l -2.25,9.3 h -34.575 q 0.675,-4.725 2.325,-8.175 1.65,-3.45 4.05,-6.225 2.475,-2.85 5.55,-5.25 3.075,-2.475 6.675,-5.25 3.375,-2.625 5.7,-4.5 2.4,-1.95 3.825,-3.525 1.5,-1.65 2.175,-3.075 0.675,-1.425 0.675,-3 0,-1.95 -1.425,-3.225 -1.35,-1.35 -3.525,-1.35 -3.075,0 -6,1.35 -2.925,1.275 -6.375,3.9 l -3.825,-8.175 q 4.5,-3.675 9,-5.175 4.5,-1.5 9.3,-1.5 z"
         style="font-style:italic;font-variant:normal;font-weight:bold;font-stretch:normal;font-size:75px;font-family:Ubuntu;-inkscape-font-specification:'Ubuntu Bold Italic';fill:none;stroke:#000000;stroke-width:1.5664;stroke-linecap:round;stroke-linejoin:round;stroke-miterlimit:4;stroke-dasharray:none;stroke-opacity:1"
         id="path1291" />
      <path
         d="m 593.78529,353.55393 q 3.15,1.5 4.875,4.65 1.725,3.075 1.725,6.75 0,3.075 -1.275,6.15 -1.275,3.075 -4.05,5.55 -2.775,2.475 -7.05,4.05 -4.275,1.5 -10.275,1.5 -8.55,0 -15.375,-3.525 l 4.05,-8.85 q 2.175,1.5 5.4,2.475 3.225,0.9 6.6,0.9 2.1,0 4.05,-0.45 2.025,-0.45 3.525,-1.5 1.5,-1.05 2.4,-2.7 0.9,-1.65 0.9,-4.05 0,-3.075 -2.55,-4.65 -2.475,-1.575 -6.675,-1.575 h -4.8 l 2.175,-8.85 h 5.4 q 1.575,0 3.3,-0.3 1.725,-0.3 3.15,-1.05 1.425,-0.825 2.325,-2.1 0.975,-1.35 0.975,-3.45 0,-2.625 -1.8,-3.825 -1.8,-1.275 -4.725,-1.275 -2.325,0 -5.175,0.825 -2.775,0.825 -5.775,2.4 l -2.85,-8.4 q 3.675,-2.1 7.575,-3.15 3.9,-1.125 8.1,-1.125 3.975,0 6.975,1.125 3,1.05 4.95,2.85 2.025,1.8 3,4.125 0.975,2.25 0.975,4.65 0,1.95 -0.675,3.9 -0.6,1.875 -1.875,3.6 -1.2,1.65 -3.15,3.075 -1.875,1.35 -4.35,2.25 z"
         style="font-style:italic;font-variant:normal;font-weight:bold;font-stretch:normal;font-size:75px;font-family:Ubuntu;-inkscape-font-specification:'Ubuntu Bold Italic';fill:none;stroke:#000000;stroke-width:1.5664;stroke-linecap:round;stroke-linejoin:round;stroke-miterlimit:4;stroke-dasharray:none;stroke-opacity:1"
         id="path1293" />
    </g>
    <g
       aria-label="26"
       id="text1170"
       style="font-size:75px;line-height:1.25;font-family:'URW Bookman';-inkscape-font-specification:'URW Bookman';letter-spacing:0px;word-spacing:0px;fill:none;stroke:#000000;stroke-width:1.5664;stroke-linecap:round;stroke-linejoin:round;stroke-miterlimit:4;stroke-dasharray:none;stroke-opacity:1"
       transform="matrix(0.9576131,0,0,0.95760451,-10.95555,20.784987)">
      <path
         d="m 257.24379,421.10491 q 3,0 5.55,0.975 2.625,0.975 4.5,2.7 1.95,1.65 3,3.9 1.05,2.25 1.05,4.8 0,2.85 -0.6,5.1 -0.6,2.25 -2.025,4.35 -1.425,2.1 -3.825,4.275 -2.325,2.175 -5.775,4.875 -2.025,1.575 -4.125,3 -2.025,1.425 -4.05,2.925 -1.95,1.5 -3.825,3.225 -1.875,1.65 -3.525,3.75 h 22.35 l -2.25,9.3 h -34.575 q 0.675,-4.725 2.325,-8.175 1.65,-3.45 4.05,-6.225 2.475,-2.85 5.55,-5.25 3.075,-2.475 6.675,-5.25 3.375,-2.625 5.7,-4.5 2.4,-1.95 3.825,-3.525 1.5,-1.65 2.175,-3.075 0.675,-1.425 0.675,-3 0,-1.95 -1.425,-3.225 -1.35,-1.35 -3.525,-1.35 -3.075,0 -6,1.35 -2.925,1.275 -6.375,3.9 l -3.825,-8.175 q 4.5,-3.675 9,-5.175 4.5,-1.5 9.3,-1.5 z"
         style="font-style:italic;font-variant:normal;font-weight:bold;font-stretch:normal;font-size:75px;font-family:Ubuntu;-inkscape-font-specification:'Ubuntu Bold Italic';fill:none;stroke:#000000;stroke-width:1.5664;stroke-linecap:round;stroke-linejoin:round;stroke-miterlimit:4;stroke-dasharray:none;stroke-opacity:1"
         id="path1296" />
      <path
         d="m 314.5437,430.70491 q -4.65,0.15 -8.7,0.675 -3.975,0.525 -7.35,1.95 -3.3,1.425 -5.85,3.825 -2.475,2.4 -4.125,6.225 1.95,-1.05 4.5,-1.5 2.625,-0.525 4.875,-0.525 2.775,0 5.175,0.9 2.475,0.825 4.275,2.625 1.875,1.725 2.925,4.35 1.05,2.625 1.05,6.075 0,4.875 -1.575,8.625 -1.575,3.675 -4.275,6.225 -2.7,2.55 -6.3,3.9 -3.6,1.275 -7.575,1.275 -3.525,0 -6.525,-1.2 -3,-1.2 -5.25,-3.45 -2.175,-2.325 -3.45,-5.7 -1.275,-3.45 -1.275,-7.95 0,-6.6 2.25,-12.9 2.25,-6.375 6.9,-11.325 4.65,-4.95 11.775,-7.95 7.125,-3.075 16.875,-3.075 0.6,0 1.35,0 0.825,0 1.65,0.075 z m -13.875,25.35 q 0,-3.6 -1.95,-4.95 -1.95,-1.35 -4.65,-1.35 -1.875,0 -3.825,0.525 -1.875,0.45 -3.525,1.125 -0.975,2.85 -0.975,5.85 0,3.6 1.65,6.225 1.65,2.55 5.1,2.55 3.6,0 5.85,-2.625 2.325,-2.625 2.325,-7.35 z"
         style="font-style:italic;font-variant:normal;font-weight:bold;font-stretch:normal;font-size:75px;font-family:Ubuntu;-inkscape-font-specification:'Ubuntu Bold Italic';fill:none;stroke:#000000;stroke-width:1.5664;stroke-linecap:round;stroke-linejoin:round;stroke-miterlimit:4;stroke-dasharray:none;stroke-opacity:1"
         id="path1298" />
    </g>
    <g
       aria-label="27"
       id="text1174"
       style="font-size:75px;line-height:1.25;font-family:'URW Bookman';-inkscape-font-specification:'URW Bookman';letter-spacing:0px;word-spacing:0px;fill:none;stroke:#000000;stroke-width:1.5664;stroke-linecap:round;stroke-linejoin:round;stroke-miterlimit:4;stroke-dasharray:none;stroke-opacity:1"
       transform="matrix(0.9576131,0,0,0.95760451,-11.284244,21.287729)">
      <path
         d="m 360.92584,421.10491 q 3,0 5.55,0.975 2.625,0.975 4.5,2.7 1.95,1.65 3,3.9 1.05,2.25 1.05,4.8 0,2.85 -0.6,5.1 -0.6,2.25 -2.025,4.35 -1.425,2.1 -3.825,4.275 -2.325,2.175 -5.775,4.875 -2.025,1.575 -4.125,3 -2.025,1.425 -4.05,2.925 -1.95,1.5 -3.825,3.225 -1.875,1.65 -3.525,3.75 h 22.35 l -2.25,9.3 h -34.575 q 0.675,-4.725 2.325,-8.175 1.65,-3.45 4.05,-6.225 2.475,-2.85 5.55,-5.25 3.075,-2.475 6.675,-5.25 3.375,-2.625 5.7,-4.5 2.4,-1.95 3.825,-3.525 1.5,-1.65 2.175,-3.075 0.675,-1.425 0.675,-3 0,-1.95 -1.425,-3.225 -1.35,-1.35 -3.525,-1.35 -3.075,0 -6,1.35 -2.925,1.275 -6.375,3.9 l -3.825,-8.175 q 4.5,-3.675 9,-5.175 4.5,-1.5 9.3,-1.5 z"
         style="font-style:italic;font-variant:normal;font-weight:bold;font-stretch:normal;font-size:75px;font-family:Ubuntu;-inkscape-font-specification:'Ubuntu Bold Italic';fill:none;stroke:#000000;stroke-width:1.5664;stroke-linecap:round;stroke-linejoin:round;stroke-miterlimit:4;stroke-dasharray:none;stroke-opacity:1"
         id="path1301" />
      <path
         d="m 381.02576,474.27991 q 1.425,-5.55 4.125,-11.475 2.7,-6 6.075,-11.625 3.375,-5.7 7.125,-10.725 3.75,-5.025 7.275,-8.7 h -22.575 l 2.325,-9.45 h 36.375 l -1.95,8.1 q -2.85,2.4 -6.825,6.975 -3.9,4.575 -7.875,10.5 -3.975,5.85 -7.425,12.675 -3.45,6.75 -5.325,13.725 z"
         style="font-style:italic;font-variant:normal;font-weight:bold;font-stretch:normal;font-size:75px;font-family:Ubuntu;-inkscape-font-specification:'Ubuntu Bold Italic';fill:none;stroke:#000000;stroke-width:1.5664;stroke-linecap:round;stroke-linejoin:round;stroke-miterlimit:4;stroke-dasharray:none;stroke-opacity:1"
         id="path1303" />
    </g>
    <g
       aria-label="28"
       id="text1178"
       style="font-size:75px;line-height:1.25;font-family:'URW Bookman';-inkscape-font-specification:'URW Bookman';letter-spacing:0px;word-spacing:0px;fill:none;stroke:#000000;stroke-width:1.5664;stroke-linecap:round;stroke-linejoin:round;stroke-miterlimit:4;stroke-dasharray:none;stroke-opacity:1"
       transform="matrix(0.9576131,0,0,0.95760451,-5.8192831,20.784987)">
      <path
         d="m 461.44528,421.10491 q 3,0 5.55,0.975 2.625,0.975 4.5,2.7 1.95,1.65 3,3.9 1.05,2.25 1.05,4.8 0,2.85 -0.6,5.1 -0.6,2.25 -2.025,4.35 -1.425,2.1 -3.825,4.275 -2.325,2.175 -5.775,4.875 -2.025,1.575 -4.125,3 -2.025,1.425 -4.05,2.925 -1.95,1.5 -3.825,3.225 -1.875,1.65 -3.525,3.75 h 22.35 l -2.25,9.3 h -34.575 q 0.675,-4.725 2.325,-8.175 1.65,-3.45 4.05,-6.225 2.475,-2.85 5.55,-5.25 3.075,-2.475 6.675,-5.25 3.375,-2.625 5.7,-4.5 2.4,-1.95 3.825,-3.525 1.5,-1.65 2.175,-3.075 0.675,-1.425 0.675,-3 0,-1.95 -1.425,-3.225 -1.35,-1.35 -3.525,-1.35 -3.075,0 -6,1.35 -2.925,1.275 -6.375,3.9 l -3.825,-8.175 q 4.5,-3.675 9,-5.175 4.5,-1.5 9.3,-1.5 z"
         style="font-style:italic;font-variant:normal;font-weight:bold;font-stretch:normal;font-size:75px;font-family:Ubuntu;-inkscape-font-specification:'Ubuntu Bold Italic';fill:none;stroke:#000000;stroke-width:1.5664;stroke-linecap:round;stroke-linejoin:round;stroke-miterlimit:4;stroke-dasharray:none;stroke-opacity:1"
         id="path1306" />
      <path
         d="m 478.3952,462.50491 q 0,-2.25 0.6,-4.275 0.675,-2.1 2.025,-4.05 1.425,-1.95 3.6,-3.75 2.175,-1.875 5.25,-3.75 -1.8,-1.725 -3.075,-3.9 -1.2,-2.25 -1.2,-5.4 0,-2.925 1.05,-5.85 1.125,-2.925 3.375,-5.25 2.325,-2.325 5.775,-3.75 3.45,-1.425 8.175,-1.425 3.15,0 5.85,0.9 2.7,0.9 4.65,2.55 1.95,1.575 3.075,3.9 1.125,2.325 1.125,5.1 0,1.65 -0.375,3.525 -0.375,1.8 -1.5,3.675 -1.125,1.8 -3.225,3.675 -2.025,1.875 -5.4,3.525 1.275,0.9 2.4,1.95 1.125,1.05 1.95,2.4 0.825,1.35 1.275,3 0.525,1.65 0.525,3.75 0,3.375 -1.35,6.375 -1.275,2.925 -3.825,5.175 -2.475,2.175 -6.225,3.45 -3.75,1.275 -8.55,1.275 -2.775,0 -5.625,-0.675 -2.85,-0.6 -5.175,-2.1 -2.25,-1.575 -3.75,-3.975 -1.425,-2.475 -1.425,-6.075 z m 25.125,-3.15 q 0,-1.5 -0.525,-2.625 -0.525,-1.2 -1.5,-2.175 -0.9,-0.975 -2.175,-1.725 -1.2,-0.825 -2.625,-1.575 -2.325,1.125 -3.825,2.4 -1.425,1.2 -2.325,2.475 -0.825,1.275 -1.125,2.55 -0.3,1.275 -0.3,2.475 0,2.625 1.8,3.975 1.875,1.275 4.5,1.275 1.575,0 3,-0.45 1.5,-0.525 2.625,-1.425 1.125,-0.9 1.8,-2.175 0.675,-1.35 0.675,-3 z m -7.65,-22.65 q 0,2.4 1.5,4.05 1.5,1.65 3.6,2.925 4.35,-2.025 5.775,-4.2 1.5,-2.25 1.5,-4.35 0,-2.4 -1.5,-3.75 -1.5,-1.35 -4.125,-1.35 -3.075,0 -4.95,1.95 -1.8,1.95 -1.8,4.725 z"
         style="font-style:italic;font-variant:normal;font-weight:bold;font-stretch:normal;font-size:75px;font-family:Ubuntu;-inkscape-font-specification:'Ubuntu Bold Italic';fill:none;stroke:#000000;stroke-width:1.5664;stroke-linecap:round;stroke-linejoin:round;stroke-miterlimit:4;stroke-dasharray:none;stroke-opacity:1"
         id="path1308" />
    </g>
    <g
       aria-label="29"
       id="text1182"
       style="font-size:75px;line-height:1.25;font-family:'URW Bookman';-inkscape-font-specification:'URW Bookman';letter-spacing:0px;word-spacing:0px;fill:none;stroke:#000000;stroke-width:1.5664;stroke-linecap:round;stroke-linejoin:round;stroke-miterlimit:4;stroke-dasharray:none;stroke-opacity:1"
       transform="matrix(0.9576131,0,0,0.95760451,11.368639,19.153621)">
      <path
         d="m 548.26038,423.221 q 3,0 5.55,0.975 2.625,0.975 4.5,2.7 1.95,1.65 3,3.9 1.05,2.25 1.05,4.8 0,2.85 -0.6,5.1 -0.6,2.25 -2.025,4.35 -1.425,2.1 -3.825,4.275 -2.325,2.175 -5.775,4.875 -2.025,1.575 -4.125,3 -2.025,1.425 -4.05,2.925 -1.95,1.5 -3.825,3.225 -1.875,1.65 -3.525,3.75 h 22.35 l -2.25,9.3 h -34.575 q 0.675,-4.725 2.325,-8.175 1.65,-3.45 4.05,-6.225 2.475,-2.85 5.55,-5.25 3.075,-2.475 6.675,-5.25 3.375,-2.625 5.7,-4.5 2.4,-1.95 3.825,-3.525 1.5,-1.65 2.175,-3.075 0.675,-1.425 0.675,-3 0,-1.95 -1.425,-3.225 -1.35,-1.35 -3.525,-1.35 -3.075,0 -6,1.35 -2.925,1.275 -6.375,3.9 l -3.825,-8.175 q 4.5,-3.675 9,-5.175 4.5,-1.5 9.3,-1.5 z"
         style="font-style:italic;font-variant:normal;font-weight:bold;font-stretch:normal;font-size:75px;font-family:Ubuntu;-inkscape-font-specification:'Ubuntu Bold Italic';fill:none;stroke:#000000;stroke-width:1.5664;stroke-linecap:round;stroke-linejoin:round;stroke-miterlimit:4;stroke-dasharray:none;stroke-opacity:1"
         id="path1311" />
      <path
         d="m 565.36029,467.771 q 4.65,-0.075 8.625,-0.6 4.05,-0.6 7.35,-2.025 3.375,-1.425 5.85,-3.825 2.55,-2.4 4.2,-6.225 -1.95,1.05 -4.575,1.575 -2.55,0.45 -4.8,0.45 -2.775,0 -5.25,-0.825 -2.4,-0.9 -4.275,-2.625 -1.8,-1.8 -2.85,-4.35 -1.05,-2.625 -1.05,-6.15 0,-4.8 1.575,-8.55 1.575,-3.75 4.275,-6.3 2.7,-2.55 6.3,-3.825 3.6,-1.35 7.575,-1.35 3.45,0 6.45,1.2 3.075,1.2 5.25,3.525 2.25,2.25 3.525,5.7 1.275,3.375 1.275,7.875 0,6.6 -2.25,12.975 -2.25,6.3 -6.9,11.25 -4.65,4.95 -11.775,8.025 -7.125,3 -16.875,3 -0.6,0 -1.425,0 -0.75,0 -1.575,-0.075 z m 13.875,-25.35 q 0,3.6 1.95,4.95 1.95,1.35 4.65,1.35 1.875,0 3.75,-0.45 1.95,-0.525 3.6,-1.2 0.975,-2.85 0.975,-5.85 0,-3.6 -1.65,-6.15 -1.65,-2.625 -5.1,-2.625 -3.6,0 -5.925,2.625 -2.25,2.625 -2.25,7.35 z"
         style="font-style:italic;font-variant:normal;font-weight:bold;font-stretch:normal;font-size:75px;font-family:Ubuntu;-inkscape-font-specification:'Ubuntu Bold Italic';fill:none;stroke:#000000;stroke-width:1.5664;stroke-linecap:round;stroke-linejoin:round;stroke-miterlimit:4;stroke-dasharray:none;stroke-opacity:1"
         id="path1313" />
    </g>
    <g
       aria-label="25"
       id="text1186"
       style="font-size:75px;line-height:1.25;font-family:'URW Bookman';-inkscape-font-specification:'URW Bookman';letter-spacing:0px;word-spacing:0px;fill:none;stroke:#000000;stroke-width:1.5664;stroke-linecap:round;stroke-linejoin:round;stroke-miterlimit:4;stroke-dasharray:none;stroke-opacity:1"
       transform="matrix(0.9576131,0,0,0.95760451,-19.947415,18.758552)">
      <path
         d="m 162.05736,423.22106 q 3,0 5.55,0.975 2.625,0.975 4.5,2.7 1.95,1.65 3,3.9 1.05,2.25 1.05,4.8 0,2.85 -0.6,5.1 -0.6,2.25 -2.025,4.35 -1.425,2.1 -3.825,4.275 -2.325,2.175 -5.775,4.875 -2.025,1.575 -4.125,3 -2.025,1.425 -4.05,2.925 -1.95,1.5 -3.825,3.225 -1.875,1.65 -3.525,3.75 h 22.35 l -2.25,9.3 h -34.575 q 0.675,-4.725 2.325,-8.175 1.65,-3.45 4.05,-6.225 2.475,-2.85 5.55,-5.25 3.075,-2.475 6.675,-5.25 3.375,-2.625 5.7,-4.5 2.4,-1.95 3.825,-3.525 1.5,-1.65 2.175,-3.075 0.675,-1.425 0.675,-3 0,-1.95 -1.425,-3.225 -1.35,-1.35 -3.525,-1.35 -3.075,0 -6,1.35 -2.925,1.275 -6.375,3.9 l -3.825,-8.175 q 4.5,-3.675 9,-5.175 4.5,-1.5 9.3,-1.5 z"
         style="font-style:italic;font-variant:normal;font-weight:bold;font-stretch:normal;font-size:75px;font-family:Ubuntu;-inkscape-font-specification:'Ubuntu Bold Italic';fill:none;stroke:#000000;stroke-width:1.5664;stroke-linecap:round;stroke-linejoin:round;stroke-miterlimit:4;stroke-dasharray:none;stroke-opacity:1"
         id="path1316" />
      <path
         d="m 180.88227,464.84606 q 2.625,1.575 5.625,2.4 3,0.825 5.775,0.825 5.4,0 8.25,-2.025 2.85,-2.025 2.85,-6.3 0,-1.8 -0.975,-3.225 -0.975,-1.5 -3.15,-2.475 -2.175,-1.05 -5.85,-1.575 -3.6,-0.6 -8.85,-0.6 2.475,-6.975 4.725,-14.025 2.25,-7.125 3.975,-13.425 h 27.75 l -2.25,9.3 h -18.525 q -0.75,2.7 -1.65,5.475 -0.825,2.7 -1.5,4.575 4.5,0.375 7.725,1.725 3.3,1.275 5.4,3.3 2.175,2.025 3.225,4.65 1.05,2.55 1.05,5.475 0,4.2 -1.425,7.65 -1.35,3.45 -4.125,5.85 -2.775,2.4 -6.9,3.75 -4.125,1.275 -9.525,1.275 -1.575,0 -3.6,-0.225 -2.025,-0.225 -4.2,-0.675 -2.1,-0.375 -4.2,-1.05 -2.025,-0.675 -3.75,-1.575 z"
         style="font-style:italic;font-variant:normal;font-weight:bold;font-stretch:normal;font-size:75px;font-family:Ubuntu;-inkscape-font-specification:'Ubuntu Bold Italic';fill:none;stroke:#000000;stroke-width:1.5664;stroke-linecap:round;stroke-linejoin:round;stroke-miterlimit:4;stroke-dasharray:none;stroke-opacity:1"
         id="path1318" />
    </g>
    <g
       aria-label="24"
       id="text1190"
       style="font-size:75px;line-height:1.25;font-family:'URW Bookman';-inkscape-font-specification:'URW Bookman';letter-spacing:0px;word-spacing:0px;fill:none;stroke:#000000;stroke-width:1.5664;stroke-linecap:round;stroke-linejoin:round;stroke-miterlimit:4;stroke-dasharray:none;stroke-opacity:1"
       transform="matrix(0.9576131,0,0,0.95760451,-16.02428,21.287729)">
      <path
         d="m 54.096764,421.10491 q 3,0 5.55,0.975 2.625,0.975 4.5,2.7 1.95,1.65 3,3.9 1.05,2.25 1.05,4.8 0,2.85 -0.6,5.1 -0.6,2.25 -2.025,4.35 -1.425,2.1 -3.825,4.275 -2.325,2.175 -5.775,4.875 -2.025,1.575 -4.125,3 -2.025,1.425 -4.05,2.925 -1.95,1.5 -3.825,3.225 -1.875,1.65 -3.525,3.75 h 22.35 l -2.25,9.3 h -34.575 q 0.675,-4.725 2.325,-8.175 1.65,-3.45 4.05,-6.225 2.475,-2.85 5.55,-5.25 3.075,-2.475 6.675,-5.25 3.375,-2.625 5.7,-4.5 2.4,-1.95 3.825,-3.525 1.5,-1.65 2.175,-3.075 0.675,-1.425 0.675,-3 0,-1.95 -1.425,-3.225 -1.35,-1.35 -3.525,-1.35 -3.075,0 -6,1.35 -2.925,1.275 -6.375,3.9 l -3.825,-8.175 q 4.5,-3.675 9,-5.175 4.5,-1.5 9.3,-1.5 z"
         style="font-style:italic;font-variant:normal;font-weight:bold;font-stretch:normal;font-size:75px;font-family:Ubuntu;-inkscape-font-specification:'Ubuntu Bold Italic';fill:none;stroke:#000000;stroke-width:1.5664;stroke-linecap:round;stroke-linejoin:round;stroke-miterlimit:4;stroke-dasharray:none;stroke-opacity:1"
         id="path1321" />
      <path
         d="m 98.196678,435.50491 q -1.95,1.875 -4.125,4.05 -2.1,2.175 -4.275,4.575 -2.175,2.325 -4.275,4.8 -2.025,2.4 -3.825,4.725 h 12.15 z m 13.725002,-13.2 -7.575,31.35 h 5.475 l -2.175,9 h -5.55 l -2.850002,11.625 h -10.65 l 2.775,-11.625 h -22.275 l 1.875,-8.25 q 2.4,-3.3 5.85,-7.425 3.45,-4.2 7.5,-8.55 4.05,-4.35 8.4,-8.55 4.35,-4.2 8.550002,-7.575 z"
         style="font-style:italic;font-variant:normal;font-weight:bold;font-stretch:normal;font-size:75px;font-family:Ubuntu;-inkscape-font-specification:'Ubuntu Bold Italic';fill:none;stroke:#000000;stroke-width:1.5664;stroke-linecap:round;stroke-linejoin:round;stroke-miterlimit:4;stroke-dasharray:none;stroke-opacity:1"
         id="path1323" />
    </g>
    <g
       aria-label="30"
       id="text1194"
       style="font-size:75px;line-height:1.25;font-family:'URW Bookman';-inkscape-font-specification:'URW Bookman';letter-spacing:0px;word-spacing:0px;fill:none;stroke:#000000;stroke-width:1.5664;stroke-linecap:round;stroke-linejoin:round;stroke-miterlimit:4;stroke-dasharray:none;stroke-opacity:1"
       transform="matrix(0.9576131,0,0,0.95760451,-15.306088,24.5126)">
      <path
         d="m 57.021769,547.21451 q 3.15,1.5 4.875,4.65 1.725,3.075 1.725,6.75 0,3.075 -1.275,6.15 -1.275,3.075 -4.05,5.55 -2.775,2.475 -7.05,4.05 -4.275,1.5 -10.275,1.5 -8.55,0 -15.375,-3.525 l 4.05,-8.85 q 2.175,1.5 5.4,2.475 3.225,0.9 6.6,0.9 2.1,0 4.05,-0.45 2.025,-0.45 3.525,-1.5 1.5,-1.05 2.4,-2.7 0.9,-1.65 0.9,-4.05 0,-3.075 -2.55,-4.65 -2.475,-1.575 -6.675,-1.575 h -4.8 l 2.175,-8.85 h 5.4 q 1.575,0 3.3,-0.3 1.725,-0.3 3.15,-1.05 1.425,-0.825 2.325,-2.1 0.975,-1.35 0.975,-3.45 0,-2.625 -1.8,-3.825 -1.8,-1.275 -4.725,-1.275 -2.325,0 -5.175,0.825 -2.775,0.825 -5.775,2.4 l -2.85,-8.4 q 3.675,-2.1 7.575,-3.15 3.9,-1.125 8.1,-1.125 3.975,0 6.975,1.125 3,1.05 4.95,2.85 2.025,1.8 3,4.125 0.975,2.25 0.975,4.65 0,1.95 -0.675,3.9 -0.6,1.875 -1.875,3.6 -1.2,1.65 -3.15,3.075 -1.875,1.35 -4.35,2.25 z"
         style="font-style:italic;font-variant:normal;font-weight:bold;font-stretch:normal;font-size:75px;font-family:Ubuntu;-inkscape-font-specification:'Ubuntu Bold Italic';fill:none;stroke:#000000;stroke-width:1.5664;stroke-linecap:round;stroke-linejoin:round;stroke-miterlimit:4;stroke-dasharray:none;stroke-opacity:1"
         id="path1326" />
      <path
         d="m 86.421684,566.26451 q 2.4,0 4.425,-1.425 2.025,-1.425 3.525,-3.75 1.575,-2.325 2.7,-5.25 1.2,-3 1.95,-6.075 0.75,-3.075 1.124996,-6 0.375,-2.925 0.375,-5.175 0,-3.825 -1.199996,-5.625 -1.125,-1.8 -3.525,-1.8 -2.475,0 -4.5,1.425 -2.025,1.425 -3.6,3.75 -1.575,2.325 -2.775,5.325 -1.125,3 -1.875,6.075 -0.75,3.075 -1.125,6 -0.375,2.925 -0.375,5.175 0,3.9 1.2,5.625 1.2,1.725 3.675,1.725 z m -1.725,9.6 q -3.675,0 -6.225,-1.275 -2.55,-1.35 -4.2,-3.525 -1.575,-2.175 -2.325,-4.875 -0.675,-2.775 -0.675,-5.7 0,-8.55 1.875,-15.675 1.95,-7.125 5.325,-12.3 3.45,-5.175 8.25,-8.025 4.8,-2.85 10.65,-2.85 3.674996,0 6.224996,1.35 2.55,1.275 4.125,3.45 1.65,2.175 2.325,4.95 0.75,2.7 0.75,5.625 0,8.55 -1.95,15.675 -1.875,7.125 -5.325,12.3 -3.375,5.175 -8.174996,8.025 -4.8,2.85 -10.65,2.85 z"
         style="font-style:italic;font-variant:normal;font-weight:bold;font-stretch:normal;font-size:75px;font-family:Ubuntu;-inkscape-font-specification:'Ubuntu Bold Italic';fill:none;stroke:#000000;stroke-width:1.5664;stroke-linecap:round;stroke-linejoin:round;stroke-miterlimit:4;stroke-dasharray:none;stroke-opacity:1"
         id="path1328" />
    </g>
  </g>
</svg>
